<?xml version="1.0" encoding="UTF-8" standalone="no"?>
<!DOCTYPE svg PUBLIC "-//W3C//DTD SVG 1.1//EN" "http://www.w3.org/Graphics/SVG/1.1/DTD/svg11.dtd">
<svg width="100%" height="100%" viewBox="0 0 1080 1080" version="1.1" xmlns="http://www.w3.org/2000/svg" xmlns:xlink="http://www.w3.org/1999/xlink" xml:space="preserve" xmlns:serif="http://www.serif.com/" style="fill-rule:evenodd;clip-rule:evenodd;stroke-linejoin:round;stroke-miterlimit:2;">
    <g transform="matrix(0.865256,0,0,0.865256,1363.18,146.736)">
        <g id="Layer-1" serif:id="Layer 1">
            <g id="g24">
                <path id="path26" d="M-1034.52,820.146C-1040.92,807.882 -1045.83,797.698 -1045.84,796.665C-1045.85,795.97 -1046.29,794.62 -1046.81,793.665C-1048.08,791.357 -1051.34,781.16 -1052.81,774.929C-1053.45,772.179 -1054.38,768.354 -1054.86,766.429C-1055.35,764.504 -1056.21,758.879 -1056.77,753.929C-1061.97,708.534 -1055.69,686.361 -1026.75,647.862C-1013.76,630.591 -1008.78,620.241 -1005.86,604.429C-1005.4,601.954 -1004.54,598.129 -1003.95,595.929C-1003.36,593.729 -1002.62,584.279 -1002.29,574.929C-1001.38,548.443 -999.462,543.604 -983.546,527.519C-975.513,519.401 -973.857,517.201 -973.857,514.649C-973.857,510.93 -979.498,504.429 -982.725,504.429C-985.193,504.429 -985.539,506.618 -983.357,508.429C-981.461,510.002 -981.403,515.807 -983.268,517.355C-987.267,520.674 -999.174,519.715 -1003.96,515.689C-1006.89,513.223 -1007.05,512.74 -1006.66,507.408C-1005.2,487.146 -980.09,488.762 -971.39,509.679C-969.51,514.198 -968.659,514.311 -965.254,510.49C-958.109,502.471 -946.987,502.465 -939.313,510.476C-935.587,514.365 -935.105,514.245 -932.712,508.834C-927.07,496.081 -915.036,490.002 -905.172,494.922C-896.619,499.189 -894.5,509.839 -900.971,516.039C-904.942,519.845 -918.887,520.45 -921.498,516.93C-923.241,514.579 -922.621,509.932 -920.209,507.266C-918.758,505.663 -918.75,505.408 -920.131,504.878C-922.618,503.924 -927.798,507.239 -929.546,510.903C-931.868,515.773 -930.463,518.332 -919.454,529.28C-905.173,543.484 -903.441,548.252 -902.398,576.237C-901.752,593.594 -899.588,606.99 -895.481,619.066C-892.028,629.217 -888.841,634.635 -875.856,652.43C-861.81,671.679 -854.244,687.017 -849.711,705.43C-847.896,712.802 -847.881,746.55 -849.688,755.43C-853.847,775.861 -858.641,791.604 -864.401,803.745C-866.276,807.697 -867.82,810.007 -867.833,808.88C-867.848,807.752 -867.474,806.402 -867.006,805.88C-865.992,804.748 -862.902,793.953 -861.581,786.93C-859.985,778.441 -859.55,748.743 -860.885,739.43C-867.023,696.612 -884.427,666.494 -908.741,656.617C-916.166,653.6 -923.801,654.001 -918.503,657.13C-911.779,661.101 -914.459,672.795 -922.655,675.251C-936.796,679.488 -948.857,669.85 -948.857,654.314C-948.857,642.767 -942.828,636.609 -928.508,633.528C-919.42,631.573 -919.597,631.837 -922.745,624.93C-926.92,615.77 -928.79,605.814 -929.415,589.43C-930.653,556.929 -937.493,542.43 -951.587,542.43C-966.491,542.43 -973.982,555.834 -975.33,584.919C-976.312,606.104 -978.972,619.3 -983.862,627.24C-986.465,631.465 -985.998,632.09 -979.606,632.942C-957.238,635.923 -948.787,656.615 -964.02,671.105C-971.955,678.653 -987.623,677.368 -990.545,668.93C-992.049,664.587 -990.268,658.185 -987.232,657.02C-984.763,656.073 -985.787,654.43 -988.846,654.43C-998.186,654.43 -1012.33,663.873 -1023.16,677.333C-1032.42,688.849 -1042.47,717.555 -1045.78,741.93C-1048.69,763.345 -1045.57,792.656 -1038.83,807.169C-1037.74,809.5 -1036.86,811.849 -1036.86,812.389C-1036.86,812.928 -1035.94,815.008 -1034.81,817.012C-1033.69,819.015 -1032.9,821.039 -1033.06,821.509C-1033.22,821.98 -1033.88,821.367 -1034.52,820.147L-1034.52,820.146ZM-744.857,777.934C-744.857,777.091 -744.455,775.62 -743.964,774.665C-742.184,771.206 -740.72,762.458 -740.691,755.113C-740.658,746.585 -743.131,740.386 -749.691,732.551C-762.555,717.19 -765.147,711.18 -765.275,696.429C-765.396,682.474 -762.68,675.611 -752.799,664.898C-744.353,655.741 -741.909,643.914 -745.831,631.179C-747.446,625.934 -749.857,624.778 -749.857,629.247C-749.857,637.557 -756.545,649.447 -768.239,661.929C-779.314,673.749 -782.507,688.147 -777.149,702.109C-775.9,705.365 -778.903,702.698 -786.923,693.429C-791.444,688.204 -799.154,679.661 -804.058,674.445C-820.997,656.425 -824.171,647.332 -820.788,626.51C-819.438,618.206 -818.606,615.763 -812.563,602.363C-807.118,590.29 -806.233,578.703 -810.039,569.312C-814.308,558.777 -818.427,555.285 -819.044,561.679C-819.269,564.014 -819.779,564.805 -820.857,564.488C-827.141,562.64 -832.473,563.323 -837.346,566.599C-842.95,570.367 -846.255,576.495 -843.886,578.725C-842.887,579.665 -842.504,579.647 -842.136,578.642C-838.988,570.032 -824.4,566.751 -818.458,573.317C-811.964,580.493 -818.139,602.418 -828.593,609.299C-841.655,617.896 -861.677,597.732 -862.161,575.494C-862.44,562.66 -858.057,557.379 -846.657,556.812C-843.445,556.653 -840.377,556.25 -839.837,555.917C-837.341,554.374 -840.365,541.312 -846.266,528.15C-849.801,520.267 -849.623,519.943 -843.607,523.287C-836.75,527.099 -831.295,529.832 -826.357,531.932C-824.157,532.867 -821.457,534.018 -820.357,534.49C-815.677,536.497 -805.293,539.435 -800.756,540.037L-795.857,540.686L-795.857,534.107C-795.857,521.82 -800.747,506.044 -807.846,495.429C-811.524,489.929 -811.524,489.929 -818.982,489.392C-833.168,488.372 -839.124,482.287 -839.229,468.707C-839.307,458.625 -838.05,455.382 -832.192,450.553C-823.758,443.602 -802.23,441.518 -787.357,446.215C-777.222,449.415 -776.928,449.843 -783.596,451.697C-800.799,456.479 -799.439,465.22 -774.068,512.929C-766.466,527.223 -764.857,533.493 -764.857,548.817C-764.857,560.579 -768.772,583.042 -772.31,591.578C-774.232,596.214 -770.642,593.437 -766.557,587.127C-756.698,571.897 -748.59,564.584 -727.357,551.773C-707.335,539.691 -700.846,531.611 -702.173,520.41C-703.158,512.089 -712.333,500.48 -724.107,492.655C-726.17,491.284 -727.857,489.911 -727.857,489.604C-727.857,487.837 -719.099,474.76 -714.668,469.912C-710.361,465.2 -695.932,453.429 -694.463,453.429C-694.236,453.429 -691.419,451.956 -688.203,450.157C-679.825,445.467 -663.239,439.429 -658.736,439.429C-657.373,439.429 -655.83,439.042 -655.307,438.57C-654.398,437.748 -643.974,435.429 -641.19,435.429C-640.269,435.429 -639.852,436.895 -639.842,440.179C-639.8,453.294 -631.163,461.492 -615.778,463.018C-604.131,464.172 -592.857,458.926 -592.857,452.352C-592.857,449.882 -592.84,449.878 -598.64,453.485C-614.494,463.34 -627.868,448.878 -619.506,430.921C-610.619,411.838 -576.652,406.221 -560.28,421.127C-546.026,434.106 -547.785,462.775 -563.857,479.414C-575.438,491.403 -586.26,495.859 -603.857,495.883C-617.292,495.9 -618.64,495.502 -632.357,487.442C-644.055,480.569 -653.857,477.466 -653.857,480.637C-653.857,481.446 -652.746,482.614 -651.389,483.232C-644.672,486.293 -632.705,499.139 -628.216,508.107C-619.452,525.619 -625.778,538.526 -651.766,556.163C-682.52,577.034 -696.557,592.357 -704.816,614.071C-705.473,615.8 -705.839,618.5 -705.628,620.071C-705.246,622.929 -705.246,622.929 -704.418,619.929C-701.475,609.266 -691.058,594.013 -680.549,584.981C-676.067,581.129 -658.491,569.429 -657.186,569.429C-655.405,569.429 -632.977,553.168 -628.061,548.312C-621.623,541.953 -616.857,533.862 -616.857,529.291C-616.857,524.95 -614.879,524.793 -614.693,529.12C-613.767,550.599 -622.943,564.399 -649.857,582.005C-690.185,608.385 -697.842,626.105 -689.793,674.429C-681.67,723.196 -686.416,744.225 -709.746,762.84C-721.131,771.924 -744.857,782.124 -744.857,777.934ZM-706.174,624.241C-706.493,623.443 -706.73,623.68 -706.778,624.845C-706.822,625.899 -706.585,626.49 -706.253,626.158C-705.921,625.825 -705.885,624.963 -706.174,624.241L-706.174,624.241ZM-1168.86,775.831C-1202.7,764.531 -1220.3,742.322 -1220.29,710.914C-1220.29,697.812 -1220,695.835 -1214.84,673.928C-1210.06,653.652 -1209.86,652.643 -1209.84,649.236C-1209.83,647.417 -1209.42,645.294 -1208.93,644.518C-1206.47,640.632 -1206.43,664.166 -1208.86,678.928C-1210.53,688.998 -1211.15,699.018 -1210.41,703.936C-1209.44,710.368 -1208.93,709.227 -1207.87,698.306C-1207.37,693.148 -1206.28,685.313 -1205.44,680.895C-1196.13,631.523 -1208.3,604.247 -1248.31,584.871L-1259.36,579.522L-1253.15,579.475C-1246.92,579.428 -1245.16,578.953 -1236.86,575.075C-1226.95,570.45 -1218.12,562.464 -1207.74,548.729C-1183.63,516.817 -1161.94,516.976 -1122.02,549.356C-1108.49,560.33 -1107.18,561.228 -1098.36,565.523C-1083.49,572.766 -1069.68,573.291 -1056.68,567.111C-1047.73,562.851 -1047.35,563.035 -1050.14,570.294C-1057.63,589.814 -1076.54,591.839 -1109.86,576.69C-1123.19,570.627 -1126.38,569.925 -1140.36,569.976C-1147.51,570.001 -1154.93,570.529 -1156.86,571.148C-1159.89,572.122 -1159.35,572.201 -1152.8,571.741C-1141.39,570.938 -1132.41,573.109 -1115.86,580.672C-1100.47,587.705 -1085.72,592.416 -1079,592.444C-1076.99,592.452 -1074.68,592.915 -1073.86,593.472C-1069.66,596.308 -1097.1,591.306 -1111.52,586.607C-1141.85,576.724 -1156.33,577.668 -1168.14,590.302C-1173.68,596.222 -1174.54,600.706 -1170.48,602.553C-1168.58,603.421 -1166.16,603.043 -1158.23,600.636C-1130.33,592.162 -1103,594.24 -1075.22,606.95C-1067.44,610.505 -1067.78,611.313 -1076.76,610.697C-1085.65,610.089 -1104.94,612.462 -1116.36,615.568C-1143.31,622.901 -1169.36,649.394 -1167.61,667.676C-1166.62,677.986 -1160.99,679.139 -1151.4,671C-1147.88,668.015 -1141.7,664.001 -1137.68,662.082C-1130.28,658.555 -1127.83,658.104 -1109.52,656.911C-1099.53,656.26 -1093.86,653.477 -1093.86,649.228C-1093.86,647.569 -1094.32,647.435 -1097.61,648.132C-1108.05,650.341 -1115.28,647.138 -1118.42,638.913C-1123.02,626.848 -1114.43,619.956 -1093.26,618.738C-1070.33,617.418 -1063.3,623.123 -1066.04,640.838C-1068.78,658.543 -1080.64,668.967 -1120.86,688.999C-1143.38,700.216 -1159.92,718.958 -1165.44,739.515C-1167.97,748.935 -1167.75,764.288 -1164.99,771.429C-1163.82,774.454 -1162.86,777.041 -1162.86,777.179C-1162.86,777.665 -1164.41,777.316 -1168.86,775.831L-1168.86,775.831ZM-1269.38,572.627C-1281.71,568.364 -1286.36,561.052 -1286.36,545.928C-1286.36,534.707 -1285.31,531.746 -1279,525.094C-1270.45,516.094 -1252.91,511.455 -1246.49,516.501C-1238.49,522.796 -1247.34,543.171 -1257.12,540.957C-1258.35,540.678 -1260.6,540.167 -1262.11,539.822C-1265.66,539.012 -1265.62,540.406 -1261.96,544.323C-1252.36,554.6 -1235.94,538.887 -1226.03,509.928C-1225.08,507.162 -1224.22,503.368 -1221.83,491.428C-1221.03,487.478 -1220.49,480.042 -1220.76,476.834C-1220.82,476.232 -1224.45,475.231 -1228.85,474.609C-1234.4,473.825 -1239.15,472.34 -1244.35,469.768C-1253.44,465.276 -1254.25,463.597 -1245.64,467.093C-1235.91,471.048 -1220.99,471.718 -1227.86,467.892C-1229.23,467.126 -1231.39,466.483 -1232.65,466.464C-1233.91,466.444 -1236.8,465.481 -1239.07,464.322C-1245.24,461.171 -1264.75,454.428 -1267.69,454.428C-1269.17,454.428 -1269.86,454.071 -1269.31,453.583C-1268.79,453.118 -1260.93,452.211 -1251.86,451.568C-1233.87,450.293 -1214.45,447.634 -1200.36,444.516C-1188.59,441.912 -1171.89,437.594 -1169.36,436.5C-1168.26,436.024 -1164.43,434.661 -1160.86,433.471C-1157.28,432.281 -1153.35,430.885 -1152.11,430.368C-1150.87,429.851 -1148.85,429.008 -1147.61,428.494C-1112.56,413.943 -1085.67,393.412 -1069.59,368.928C-1066.34,363.978 -1063.54,359.783 -1063.36,359.605C-1060.65,356.849 -1042.38,375.498 -1035.13,388.428C-1025.82,405.023 -1022.46,443.126 -1028.83,459.928C-1029.24,461.029 -1030.39,464.403 -1031.37,467.428C-1034.1,475.8 -1041.34,488.282 -1042.69,486.932C-1043.02,486.595 -1042.86,486.007 -1042.33,485.624C-1041.79,485.242 -1041.18,484.253 -1040.96,483.428C-1040.74,482.603 -1039.9,479.678 -1039.08,476.928C-1035.69,465.442 -1035.48,447.915 -1038.59,436.428C-1039.41,433.403 -1040.31,429.685 -1040.59,428.166C-1040.86,426.647 -1041.49,425.158 -1041.97,424.857C-1042.46,424.557 -1042.86,423.437 -1042.86,422.369C-1042.86,421.302 -1043.31,420.428 -1043.86,420.428C-1045.18,420.428 -1045.11,421.908 -1043.44,428.148C-1039.38,443.43 -1039.15,466.619 -1042.97,476.106C-1051.55,497.385 -1066.11,507.171 -1089.76,507.559C-1102.14,507.761 -1108.91,504.98 -1115.26,497.084C-1119.88,491.345 -1119.89,478.536 -1115.28,472.754C-1107.18,462.597 -1086.42,462.045 -1082.31,471.877C-1078.89,480.082 -1085.49,488.428 -1095.4,488.428C-1100.42,488.428 -1101.24,489.752 -1097.1,491.193C-1089.45,493.861 -1070.86,482.707 -1070.86,475.448C-1070.86,474.557 -1070.3,473.266 -1069.61,472.578C-1065.92,468.886 -1069.06,446.202 -1074.63,436.315C-1080.15,426.524 -1079.05,426.609 -1092.84,434.916C-1122.06,452.521 -1150.72,463.464 -1178.11,467.47L-1186.86,468.751L-1186.86,474.03C-1186.86,480.328 -1186.21,480.879 -1180.63,479.337C-1173.27,477.302 -1157.36,477.845 -1149.39,480.404C-1135.38,484.907 -1128.84,490.585 -1116.57,508.928C-1099.15,534.976 -1090.57,542.346 -1077.61,542.4C-1073.76,542.417 -1070.86,541.999 -1070.86,541.428C-1070.86,540.878 -1072.33,540.428 -1074.12,540.428C-1081.49,540.428 -1087.39,533.382 -1084.7,527.803C-1078.72,515.443 -1054.47,519.943 -1049.38,534.354C-1043.18,551.927 -1056.16,564.162 -1080.07,563.277C-1097.93,562.616 -1105.58,557.635 -1124.3,534.459C-1143.98,510.1 -1161.29,500.768 -1180.3,504.27C-1189.82,506.024 -1193.29,507.937 -1194.81,512.287C-1209.03,552.746 -1244.31,581.295 -1269.38,572.627L-1269.38,572.627ZM-811.857,531.507C-843.452,522.752 -861.664,507.716 -869.259,484.115C-869.58,483.118 -870.269,482.565 -870.79,482.887C-872.519,483.956 -865.148,504.201 -862.644,505.262C-862.211,505.445 -861.857,506.333 -861.857,507.234C-861.857,508.425 -862.32,508.197 -863.549,506.401C-864.48,505.041 -865.514,503.704 -865.847,503.429C-866.18,503.154 -867.65,500.856 -869.113,498.322C-886.745,467.789 -879.332,411.283 -855.289,392.945L-851.866,390.333L-849.111,395.036C-828.005,431.075 -796.84,436.276 -758.027,410.235C-753.808,407.405 -750.132,404.821 -749.857,404.493C-749.582,404.165 -747.782,402.623 -745.857,401.067C-743.932,399.511 -737.632,393.639 -731.857,388.018C-717.888,374.421 -716.768,373.627 -712.145,374.038C-699.63,375.151 -670.702,371.93 -654.328,367.6C-631.222,361.49 -613.857,345.192 -613.857,329.616C-613.857,317.723 -633.83,316.594 -657.857,327.128C-685.967,339.452 -699.775,349.162 -726.357,375.299C-749.309,397.867 -764.939,410.219 -778.357,416.393C-792.386,422.849 -792.073,422.763 -801.857,422.847C-821.491,423.016 -840.138,409.17 -849.536,387.447C-853.221,378.929 -853.221,378.929 -853.289,363.929C-853.331,354.66 -852.879,347.305 -852.107,344.679C-851.42,342.341 -850.326,338.516 -849.677,336.179C-849.028,333.841 -848.222,331.479 -847.886,330.929C-847.549,330.379 -846.661,328.129 -845.911,325.929C-838.811,305.104 -802.3,259.734 -775.857,238.878C-755.334,222.69 -752.857,219.908 -752.857,213.037C-752.857,211.117 -753.307,209.268 -753.857,208.929C-754.407,208.589 -754.843,207.775 -754.826,207.12C-754.743,204.023 -749.857,211.807 -749.857,215.034C-749.857,221.246 -752.113,224.092 -766.732,236.322C-790.938,256.571 -808.119,282.592 -810.767,303.014C-811.26,306.817 -811.981,310.716 -812.367,311.679C-812.759,312.653 -812.625,313.429 -812.064,313.429C-811.51,313.429 -810.538,311.066 -809.904,308.179C-801.776,271.157 -769.283,236.904 -714.13,207.217C-707.12,203.444 -674.995,192.255 -667.207,190.874C-665.09,190.499 -660.953,189.584 -658.015,188.841C-653.142,187.609 -643.253,185.877 -627.357,183.472C-619.691,182.312 -607.074,180.758 -594.357,179.407C-529.891,172.557 -514.376,165.011 -515.254,140.929C-515.809,125.692 -527.538,114.486 -539.857,117.423C-542.99,118.17 -543.134,120.818 -540.065,121.254C-529.479,122.755 -523.934,144.126 -531.442,154.49C-539.996,166.298 -558.708,166.279 -572.183,154.447C-583.969,144.099 -584.685,119.83 -573.681,103.707C-564.185,89.793 -539.483,85.532 -521.117,94.639C-502.23,104.004 -492.632,129.086 -498.406,153.984C-500.107,161.316 -499.906,162.685 -497.641,159.21C-496.271,157.106 -495.692,155.521 -492.857,146.108C-490.749,139.107 -492.016,120.019 -494.975,114.192C-496.514,111.162 -496.136,108.577 -494.502,110.956C-487.82,120.683 -486.669,145.115 -492.054,162.929C-495.2,173.338 -504.992,188.798 -512.783,195.657C-519.058,201.181 -521.848,203.429 -522.431,203.429C-522.739,203.429 -524.423,204.504 -526.174,205.819C-539.085,215.517 -565.394,223.713 -597.066,227.905C-622.179,231.229 -642.189,234.317 -649.424,235.987C-657.395,237.827 -672.826,242.228 -675.357,243.383C-676.457,243.885 -679.155,244.889 -681.352,245.612C-688.716,248.039 -708.25,258.494 -719.652,266.112C-754.187,289.185 -781.723,325.245 -772.913,335.861C-769.185,340.354 -763.435,336.311 -738.357,311.558C-708.797,282.382 -685.621,267.44 -659.357,260.625C-657.157,260.054 -653.347,259.054 -650.891,258.403C-644.445,256.694 -621.6,256.908 -614.857,258.74C-583.429,267.281 -566.131,282.166 -557.697,307.929C-556.033,313.009 -556.091,333.955 -557.789,341.429C-559.798,350.266 -561.146,354.861 -562.031,355.879C-562.485,356.401 -562.857,357.47 -562.857,358.255C-562.857,359.039 -564.221,362.366 -565.888,365.647C-579.621,392.671 -602.573,412.482 -637.857,427.768C-669.321,441.398 -743.495,449.994 -768.857,442.948C-796.119,435.375 -827.194,435.149 -833.857,442.475C-834.132,442.778 -835.76,444.004 -837.474,445.2C-846.043,451.18 -849.336,469.868 -843.77,480.929C-839.653,489.109 -828.865,495.004 -815.002,496.649C-811.028,497.121 -805.538,509.641 -802.882,524.29C-801.083,534.212 -801.343,534.421 -811.857,531.507L-811.857,531.507ZM-810.164,327.698C-810.418,326.725 -810.642,327.279 -810.662,328.929C-810.682,330.579 -810.475,331.375 -810.201,330.698C-809.927,330.021 -809.911,328.671 -810.164,327.698L-810.164,327.698ZM-1333.36,500.172C-1343.77,496.552 -1349.44,492.663 -1353.28,486.511C-1362.64,471.55 -1360.82,445.95 -1349.59,434.462C-1337.7,422.303 -1326.08,419.428 -1288.86,419.438C-1264.25,419.444 -1244.35,418.343 -1232.86,416.338C-1224.6,414.896 -1209.49,411.293 -1208.36,410.493C-1207.81,410.106 -1205.33,409.158 -1202.86,408.388C-1164.46,396.431 -1139.48,365.054 -1141.19,330.929C-1142.7,300.928 -1151.98,285.983 -1182.73,264.078C-1217.93,238.993 -1247.56,226.823 -1299.86,215.964C-1306.73,214.537 -1314.16,212.942 -1316.36,212.42C-1318.56,211.899 -1327.11,210.081 -1335.36,208.382C-1375.83,200.045 -1395.14,188.925 -1406.48,167.429C-1417.91,145.778 -1416.26,114.742 -1403.01,102.161L-1399.61,98.929L-1402.2,103.1C-1410.67,116.764 -1411.4,141.792 -1403.73,155.448C-1400.79,160.675 -1400.41,159.934 -1402.3,152.645C-1404.24,145.146 -1404.33,127.787 -1402.45,120.752C-1400.28,112.595 -1396.24,105.295 -1390.86,99.831C-1379.24,88.016 -1356.01,83.715 -1341.68,90.725C-1318.64,101.997 -1312.95,139.616 -1332.17,153.541C-1354.85,169.972 -1379.85,157.415 -1373.89,132.582C-1372.45,126.57 -1365.59,118.429 -1361.96,118.429C-1357.39,118.429 -1359.93,114.96 -1364.76,114.614C-1384.33,113.211 -1395.06,140.961 -1381.28,157.339C-1372.71,167.523 -1353.38,173.804 -1319.36,177.457C-1313.86,178.047 -1306.35,178.957 -1302.66,179.479C-1298.98,180.001 -1294.09,180.429 -1291.78,180.429C-1289.47,180.429 -1284.84,180.86 -1281.47,181.388C-1278.11,181.915 -1270.86,182.841 -1265.36,183.444C-1229.13,187.419 -1192.84,198.389 -1175.7,210.546C-1174.24,211.581 -1172.8,212.429 -1172.49,212.429C-1171.48,212.429 -1156.52,221.723 -1149.49,226.714C-1096.58,264.285 -1076.74,300.578 -1087.34,340.429C-1087.88,342.45 -1087.73,342.354 -1086.55,339.929C-1080.75,327.934 -1080.15,305.646 -1085.23,290.929C-1092.06,271.14 -1107.86,250.329 -1130.58,231.19C-1142.76,220.929 -1146.08,213.269 -1140.82,207.617C-1138.3,204.911 -1137.45,204.804 -1138.82,207.363C-1141.79,212.901 -1139.04,219.724 -1131.3,226.052C-1116.45,238.189 -1106.18,247.287 -1099.69,254.047C-1095.65,258.243 -1091.62,262.408 -1090.73,263.302C-1086.68,267.345 -1074.84,284.188 -1071.06,291.276C-1056.53,318.544 -1059.71,345.661 -1080.35,370.432C-1103.04,397.665 -1133.22,417.397 -1168.86,428.297C-1187.68,434.053 -1199.41,437.039 -1209.11,438.539C-1212.27,439.028 -1217.67,439.917 -1221.11,440.513C-1233.99,442.749 -1284.82,446.237 -1305.43,446.3C-1324.26,446.357 -1334.56,454.409 -1332.37,467.353C-1330.61,477.801 -1318.37,484.82 -1311.99,479.045C-1309.14,476.473 -1310.15,475.429 -1315.46,475.429C-1320.43,475.429 -1323.07,473.642 -1324.79,469.1C-1328.65,458.941 -1323.31,453.011 -1310.36,453.075C-1295.48,453.148 -1288.25,460.709 -1288.48,475.929C-1288.69,489.72 -1293.4,495.685 -1307.76,500.329C-1311.97,501.691 -1329.29,501.586 -1333.36,500.172L-1333.36,500.172ZM-961.14,478.991C-980.057,472.242 -985.539,447.5 -971.129,433.908C-949.014,413.048 -914.816,437.604 -927.875,464.966C-933.936,477.667 -948.106,483.641 -961.14,478.991ZM-1251.36,409.34C-1291.38,392.582 -1313.6,369.458 -1324.77,332.929C-1328.83,319.656 -1328.27,321.91 -1332.91,300.429C-1334.04,295.204 -1335.37,289.354 -1335.87,287.429C-1336.36,285.504 -1337.3,281.454 -1337.96,278.429C-1341.31,262.884 -1352.83,235.494 -1362.73,219.541C-1365.55,214.992 -1367.86,210.856 -1367.86,210.349C-1367.86,209.843 -1368.19,209.426 -1368.61,209.422C-1369.02,209.419 -1370.12,208.069 -1371.06,206.422C-1373.04,202.949 -1372.85,202.905 -1365.16,205.028C-1361.97,205.908 -1358.23,206.842 -1356.86,207.104C-1355.48,207.365 -1353.46,207.95 -1352.36,208.402C-1348.6,209.95 -1312.5,217.429 -1308.8,217.429C-1305.27,217.429 -1302.33,219.595 -1298.21,225.245C-1286.26,241.62 -1284.52,253.297 -1287.43,297.679C-1287.82,303.601 -1287.66,306.429 -1286.93,306.429C-1286.32,306.429 -1285.85,304.384 -1285.84,301.679C-1285.82,296.824 -1283.24,280.475 -1282.35,279.587C-1282.08,279.317 -1281.86,285.371 -1281.86,293.042C-1281.86,309.505 -1279.7,328.489 -1276.74,338.072C-1269.49,361.552 -1251.74,385.477 -1229.11,402.287C-1220.76,408.484 -1220.54,408.015 -1233.17,410.882C-1242.04,412.896 -1243.07,412.809 -1251.36,409.34Z" style="fill:rgb(0,4,39);fill-rule:nonzero;"/>
            </g>
        </g>
    </g>
</svg>
